<?xml version="1.0" encoding="utf-8"?>
<!-- Generator: Adobe Illustrator 16.0.0, SVG Export Plug-In . SVG Version: 6.00 Build 0)  -->
<!DOCTYPE svg PUBLIC "-//W3C//DTD SVG 1.1//EN" "http://www.w3.org/Graphics/SVG/1.1/DTD/svg11.dtd">
<svg version="1.1" id="Layer_1" xmlns="http://www.w3.org/2000/svg" xmlns:xlink="http://www.w3.org/1999/xlink" x="0px" y="0px"
	 width="352px" height="40px" viewBox="0 0 352 40" enable-background="new 0 0 352 40" xml:space="preserve">
<g>
	<g>
		<path fill="#FF6600" d="M0,0.556h9.222L19.444,17L29.667,0.556h9.222v38.889h-8.5v-25.39L19.444,30.667h-0.222L8.389,14.222
			v25.223H0V0.556z"/>
		<path fill="#FF6600" d="M62.665,0.278h7.889l16.667,39.167h-8.944l-3.556-8.723H58.276l-3.556,8.723h-8.722L62.665,0.278z
			 M71.665,23.167l-5.167-12.611l-5.167,12.611H71.665z"/>
		<path fill="#FF6600" d="M94.33,0.556h8.556v16.999l15.778-16.999h10.333l-15.833,16.5l16.556,22.39h-10.278l-12.056-16.557
			l-4.5,4.667v11.89H94.33V0.556z"/>
		<path fill="#FF6600" d="M135.995,0.556h29.333v7.611h-20.833v7.889h18.333v7.611h-18.333v8.167h21.111v7.611h-29.611V0.556z"/>
		<polygon fill="#FF6600" points="204.05,18.5 192.16,18.5 192.16,6.611 189.383,6.611 189.383,18.5 177.494,18.5 177.494,21.278 
			189.383,21.278 189.383,33.167 192.16,33.167 192.16,21.278 204.05,21.278 		"/>
		<path fill="#FF6600" d="M214.992,33.778l5.056-6.055c3.499,2.887,7.167,4.721,11.611,4.721c3.5,0,5.61-1.389,5.61-3.666v-0.112
			c0-2.166-1.333-3.276-7.832-4.943c-7.834-2-12.89-4.167-12.89-11.889v-0.111C216.548,4.667,222.215,0,230.159,0
			c5.667,0,10.5,1.777,14.444,4.945l-4.444,6.444c-3.444-2.389-6.833-3.833-10.111-3.833c-3.277,0-4.999,1.499-4.999,3.388v0.111
			c0,2.556,1.666,3.388,8.389,5.111c7.889,2.055,12.333,4.888,12.333,11.667v0.111c0,7.722-5.889,12.055-14.278,12.055
			C225.604,40,219.659,37.944,214.992,33.778z"/>
		<path fill="#FF6600" d="M255.321,0.556h8.555v15.389h15.778V0.556h8.555v38.889h-8.555V23.834h-15.778v15.611h-8.555V0.556z"/>
		<path fill="#FF6600" d="M300.098,0.556h8.555v38.889h-8.555V0.556z"/>
		<path fill="#FF6600" d="M320.542,0.556h15.889c9.278,0,14.889,5.499,14.889,13.444v0.111c0,8.999-7,13.666-15.722,13.666h-6.5
			v11.668h-8.556V0.556z M335.875,20.167c4.278,0,6.777-2.555,6.777-5.888v-0.112c0-3.834-2.665-5.889-6.943-5.889h-6.611v11.889
			H335.875z"/>
	</g>
</g>
</svg>
